<?xml version="1.0" encoding="utf-8" ?><svg xmlns="http://www.w3.org/2000/svg" xmlns:xlink="http://www.w3.org/1999/xlink" width="1024" height="1024" viewBox="0 0 1024 1024"><path fill="#BCDEF6" transform="scale(2 2)" d="M140.792 377.985C138.908 375.333 139.214 365.301 139.212 361.8L139.21 172.659C139.211 159.414 137.264 136.29 155.901 134.276C160.824 133.744 166.442 133.811 171.421 133.807L359.863 133.812C368.693 133.781 372.223 132.33 379.594 138.06L380.181 137.974C382.707 141.499 382.78 147.593 382.865 151.744L382.871 320.08C382.87 328.84 378.999 347.01 390.601 346.201L390.601 355.8C392.208 356.755 394.688 358.349 394.863 360.383C396.568 380.124 382.711 393.392 365.251 397.985L365.27 414.378C365.284 418.134 366.42 425.285 363.53 428.294C361.125 430.799 356.705 430.624 354.41 428.048C351.521 424.806 353.007 403.309 352.76 397.985C339.695 397.835 326.341 397.987 313.25 397.985C313.28 402.453 314.355 412.949 311.191 416.024C308.882 418.268 304.241 417.804 302.182 415.439C299.63 412.509 300.799 402.119 300.753 397.985C271.452 397.582 240.841 399.159 211.76 397.985C211.754 402.851 211.89 407.76 211.448 412.534C210.988 417.519 203.718 419.322 201.115 415.841C198.354 412.15 199.282 402.557 199.306 397.985L159.516 397.985L159.525 417.504C159.533 420.68 160.015 424.274 159.432 427.389C158.542 432.142 152.031 433.068 149.168 429.568C145.344 424.892 148.3 404.875 147.237 397.985C129.58 391.828 117.167 384.269 116.497 362.998L94.0431 363.01C91.0308 363.01 83.3851 363.149 80.6931 362.549C70.5974 349.787 88.5918 350.624 95.1684 350.625L116.497 350.634C116.06 344.082 122.062 339.925 126.525 344.274C133.206 350.784 120.944 375.739 142.915 383.914C142.16 382.005 141.474 379.932 140.792 377.985ZM194.906 284.01C193.478 279.084 181.655 284.236 179.247 286.512C179.008 288.764 179.14 290.576 179.247 292.823C152.616 290.254 149.323 321.472 171.015 328.561C170.996 335.289 170.619 343.329 171.42 349.915C172.071 355.272 181.836 356.437 182.756 348.951C183.473 343.117 183.175 337.533 183.149 331.678C188.669 336.22 197.61 345.046 202.203 350.634C202.094 359.467 201.989 365.193 211.76 368.662C218.473 368.429 226.642 368.656 233.438 368.658L290.985 368.692C307.828 368.746 309.939 364.831 309.783 349.621C314.614 344.408 322.715 336.012 328.463 331.678C328.44 337.7 326.214 354.995 333.749 355.622C344.057 356.481 340.553 335.681 340.539 328.561C364.131 322.999 358.971 294.911 341.064 292.282C338.429 291.896 335.458 292.174 332.79 292.297C332.901 285.497 331.285 282.748 324.197 281.969L321.084 282.96L320.114 280.708C317.474 279.904 314.881 279.744 312.155 279.505C311.992 272.738 312.151 265.313 312.155 258.494C314.331 258.542 317.8 258.998 319.401 257.332C324.627 251.895 320.722 245.873 312.155 246.529L312.155 236.493C326.114 236.121 322.422 231.885 322.594 217.955C336.99 210.185 340.081 191.566 326.179 182.944C321.233 179.877 314.68 178.205 309.195 176.275L285.998 167.914C280.981 160.346 278.988 147.104 266.842 145.721C261.239 145.082 249.357 144.758 244.205 145.86C233.2 148.214 231.576 158.193 226.782 165.982L226.587 166.295C219.586 169.751 208.769 169.474 208.065 177.804C207.728 172.878 197.825 178.655 196.234 180.363C179.818 174.535 164.697 209.133 190.886 219.02C189.259 227.227 192.156 236.642 202.203 236.493C198.039 238.001 198.576 243.653 199.465 247.094L199.772 247.429C199.424 260.332 199.364 273.693 200.639 286.512C199.347 286.319 195.852 284.935 194.906 284.01Z"/><path fill="#64ADE3" transform="scale(2 2)" d="M382.865 151.744L382.871 320.08C382.87 328.84 378.999 347.01 390.601 346.201L390.601 355.8C392.208 356.755 394.688 358.349 394.863 360.383C396.568 380.124 382.711 393.392 365.251 397.985L365.27 414.378C365.284 418.134 366.42 425.285 363.53 428.294C361.125 430.799 356.705 430.624 354.41 428.048C351.521 424.806 353.007 403.309 352.76 397.985C339.695 397.835 326.341 397.987 313.25 397.985C313.28 402.453 314.355 412.949 311.191 416.024C308.882 418.268 304.241 417.804 302.182 415.439C299.63 412.509 300.799 402.119 300.753 397.985C271.452 397.582 240.841 399.159 211.76 397.985C211.754 402.851 211.89 407.76 211.448 412.534C210.988 417.519 203.718 419.322 201.115 415.841C198.354 412.15 199.282 402.557 199.306 397.985L159.516 397.985L159.525 417.504C159.533 420.68 160.015 424.274 159.432 427.389C158.542 432.142 152.031 433.068 149.168 429.568C145.344 424.892 148.3 404.875 147.237 397.985C129.58 391.828 117.167 384.269 116.497 362.998L94.0431 363.01C91.0308 363.01 83.3851 363.149 80.6931 362.549C70.5974 349.787 88.5918 350.624 95.1684 350.625L116.497 350.634C116.06 344.082 122.062 339.925 126.525 344.274C133.206 350.784 120.944 375.739 142.915 383.914C142.16 382.005 141.474 379.932 140.792 377.985L182.187 377.999C192.243 377.998 209.817 381.593 211.76 368.662C201.989 365.193 202.094 359.467 202.203 350.634C197.61 345.046 188.669 336.22 183.149 331.678C183.175 337.533 183.473 343.117 182.756 348.951C181.836 356.437 172.071 355.272 171.42 349.915C170.619 343.329 170.996 335.289 171.015 328.561C149.323 321.472 152.616 290.254 179.247 292.823C179.14 290.576 179.008 288.764 179.247 286.512C181.655 284.236 193.478 279.084 194.906 284.01C188.947 289.478 190.874 291.245 190.874 299.668L190.886 322.246C197.797 329.74 207.58 337.618 214.247 345.308C214.355 349.057 214.273 352.992 214.247 356.756L297.508 356.756C297.566 352.988 297.511 349.086 297.508 345.308C302.547 338.031 314.732 328.545 321.084 320.992C322.111 310.675 321.235 293.807 321.084 282.96L324.197 281.969C325.392 280.946 326.391 280.007 327.397 278.802C355.458 245.228 372.849 202.773 380.541 159.943C380.94 157.722 381.546 153.474 382.865 151.744ZM321.084 282.96C321.235 293.807 322.111 310.675 321.084 320.992C314.732 328.545 302.547 338.031 297.508 345.308C297.511 349.086 297.566 352.988 297.508 356.756L214.247 356.756C214.273 352.992 214.355 349.057 214.247 345.308C207.58 337.618 197.797 329.74 190.886 322.246L190.874 299.668C190.874 291.245 188.947 289.478 194.906 284.01C193.478 279.084 181.655 284.236 179.247 286.512C179.008 288.764 179.14 290.576 179.247 292.823C152.616 290.254 149.323 321.472 171.015 328.561C170.996 335.289 170.619 343.329 171.42 349.915C172.071 355.272 181.836 356.437 182.756 348.951C183.473 343.117 183.175 337.533 183.149 331.678C188.669 336.22 197.61 345.046 202.203 350.634C202.094 359.467 201.989 365.193 211.76 368.662C218.473 368.429 226.642 368.656 233.438 368.658L290.985 368.692C307.828 368.746 309.939 364.831 309.783 349.621C314.614 344.408 322.715 336.012 328.463 331.678C328.44 337.7 326.214 354.995 333.749 355.622C344.057 356.481 340.553 335.681 340.539 328.561C364.131 322.999 358.971 294.911 341.064 292.282C338.429 291.896 335.458 292.174 332.79 292.297C332.901 285.497 331.285 282.748 324.197 281.969L321.084 282.96Z"/><path transform="scale(2 2)" d="M116.497 350.634C116.06 344.082 122.062 339.925 126.525 344.274C133.206 350.784 120.944 375.739 142.915 383.914C147.668 386.075 157.498 385.574 162.906 385.575L347.376 385.579C361.517 385.603 378.638 385.946 382.115 367.408C383.236 361.429 381.841 355.111 390.601 355.8C392.208 356.755 394.688 358.349 394.863 360.383C396.568 380.124 382.711 393.392 365.251 397.985L365.27 414.378C365.284 418.134 366.42 425.285 363.53 428.294C361.125 430.799 356.705 430.624 354.41 428.048C351.521 424.806 353.007 403.309 352.76 397.985C339.695 397.835 326.341 397.987 313.25 397.985C313.28 402.453 314.355 412.949 311.191 416.024C308.882 418.268 304.241 417.804 302.182 415.439C299.63 412.509 300.799 402.119 300.753 397.985C271.452 397.582 240.841 399.159 211.76 397.985C211.754 402.851 211.89 407.76 211.448 412.534C210.988 417.519 203.718 419.322 201.115 415.841C198.354 412.15 199.282 402.557 199.306 397.985L159.516 397.985L159.525 417.504C159.533 420.68 160.015 424.274 159.432 427.389C158.542 432.142 152.031 433.068 149.168 429.568C145.344 424.892 148.3 404.875 147.237 397.985C129.58 391.828 117.167 384.269 116.497 362.998L94.0431 363.01C91.0308 363.01 83.3851 363.149 80.6931 362.549C70.5974 349.787 88.5918 350.624 95.1684 350.625L116.497 350.634Z"/><path transform="scale(2 2)" d="M324.197 281.969C331.285 282.748 332.901 285.497 332.79 292.297C335.458 292.174 338.429 291.896 341.064 292.282C358.971 294.911 364.131 322.999 340.539 328.561C340.553 335.681 344.057 356.481 333.749 355.622C326.214 354.995 328.44 337.7 328.463 331.678C322.715 336.012 314.614 344.408 309.783 349.621C309.939 364.831 307.828 368.746 290.985 368.692L233.438 368.658C226.642 368.656 218.473 368.429 211.76 368.662C201.989 365.193 202.094 359.467 202.203 350.634C197.61 345.046 188.669 336.22 183.149 331.678C183.175 337.533 183.473 343.117 182.756 348.951C181.836 356.437 172.071 355.272 171.42 349.915C170.619 343.329 170.996 335.289 171.015 328.561C149.323 321.472 152.616 290.254 179.247 292.823C179.14 290.576 179.008 288.764 179.247 286.512C181.655 284.236 193.478 279.084 194.906 284.01C188.947 289.478 190.874 291.245 190.874 299.668L190.886 322.246C197.797 329.74 207.58 337.618 214.247 345.308C214.355 349.057 214.273 352.992 214.247 356.756L297.508 356.756C297.566 352.988 297.511 349.086 297.508 345.308C302.547 338.031 314.732 328.545 321.084 320.992C322.111 310.675 321.235 293.807 321.084 282.96L324.197 281.969ZM343.641 307.455C337.528 298.514 327.422 311.615 335.391 315.949C338.81 313.053 340.668 310.759 343.641 307.455ZM179.247 307.455C178.686 300.343 163.611 306.408 171.015 313.823C171.589 315.026 172.702 316.068 174.083 316.203C181.036 316.882 178.795 311.767 179.247 307.455Z"/><path fill="#ADACAD" transform="scale(2 2)" d="M343.641 307.455C345.596 313.495 340.643 318.99 335.391 315.949C338.81 313.053 340.668 310.759 343.641 307.455Z"/><path transform="scale(2 2)" d="M226.587 166.295L226.782 165.982C231.576 158.193 233.2 148.214 244.205 145.86C249.357 144.758 261.239 145.082 266.842 145.721C278.988 147.104 280.981 160.346 285.998 167.914L309.195 176.275C314.68 178.205 321.233 179.877 326.179 182.944C340.081 191.566 336.99 210.185 322.594 217.955C322.422 231.885 326.114 236.121 312.155 236.493L312.155 246.529C320.722 245.873 324.627 251.895 319.401 257.332C317.8 258.998 314.331 258.542 312.155 258.494C312.151 265.313 311.992 272.738 312.155 279.505C301.289 351.917 213.911 348.99 200.639 286.512C199.364 273.693 199.424 260.332 199.772 247.429C203.497 246.825 205.908 249.827 209.553 246.529C210.679 244.462 211.001 243.87 211.76 241.643C211.012 240.299 209.081 237.695 208.065 236.493C206.115 236.543 204.154 236.51 202.203 236.493C192.156 236.642 189.259 227.227 190.886 219.02C164.697 209.133 179.818 174.535 196.234 180.363C197.825 178.655 207.728 172.878 208.065 177.804C208.769 169.474 219.586 169.751 226.587 166.295ZM220.251 217.955C220.17 221.338 220.811 222.499 223.659 224.533C225.037 224.581 226.69 224.534 228.091 224.533C230.257 223.331 230.982 221.266 231.593 219.02C231.13 216.943 230.851 216.15 229.554 214.476C226.373 213.295 225.779 213.434 222.456 214.476C221.418 215.857 221.063 216.428 220.251 217.955ZM211.76 216.031C206.105 215.286 198.433 218.532 202.976 223.45C204.897 225.529 209.426 224.743 212.039 224.533C214.857 222.091 213.425 218.604 211.76 216.031Z"/><path fill="white" transform="scale(2 2)" d="M208.065 177.804C209.754 187.28 227.533 179.752 233.534 176.699C239.197 174.03 241.028 158.304 246.831 157.533C278.217 153.363 265.886 166.546 276.401 176.03C278.464 177.892 281.725 178.865 284.063 180.363C284.08 186.432 284.847 190.519 280.742 195.244C277.735 198.706 268.618 199.75 271.904 200.746C258.057 200.737 207.885 201.205 196.234 208.14C189.596 205.395 184.212 198.492 192.29 192.824C196.573 189.819 204.565 186.759 196.234 180.363C197.825 178.655 207.728 172.878 208.065 177.804Z"/><path fill="#FEC302" transform="scale(2 2)" d="M250.005 236.493L263.97 236.493L300.176 236.493L300.186 261.107C300.187 270.354 300.85 279.68 298.344 288.544C291.057 276.034 278.187 260.013 261.749 266.781C258.706 267.033 258.297 267.393 255.592 269.101C253.681 268.348 251.888 267.603 250.005 266.781C249.984 256.818 250.212 246.399 250.005 236.493Z"/><path fill="#F1EFC9" transform="scale(2 2)" d="M250.005 236.493L263.97 236.493C263.881 246.82 261.23 255.497 261.749 266.781C258.706 267.033 258.297 267.393 255.592 269.101C253.681 268.348 251.888 267.603 250.005 266.781C249.984 256.818 250.212 246.399 250.005 236.493Z"/><path transform="scale(2 2)" d="M274.066 241.643C284.403 239.401 284.039 256.598 277.937 259.711C265.906 260.727 268.652 243.553 274.066 241.643Z"/><path fill="#FEC302" transform="scale(2 2)" d="M208.065 236.493C221.904 236.306 236.136 236.484 250.005 236.493C250.212 246.399 249.984 256.818 250.005 266.781C234.052 263.107 220.186 275.707 214.247 289.452C211.233 282.787 211.738 275.836 211.751 268.648L211.735 256.428C211.748 252.373 213.041 249.206 209.553 246.529C210.679 244.462 211.001 243.87 211.76 241.643C211.012 240.299 209.081 237.695 208.065 236.493Z"/><path transform="scale(2 2)" d="M233.795 241.643C236.518 241.836 237.812 242.661 239.532 244.77C240.572 249.747 241.02 255.721 235.38 257.746C227.683 258.184 224.92 245.943 233.795 241.643Z"/><path fill="#E0DFDD" transform="scale(2 2)" d="M284.063 180.363C288.58 181.186 296.673 184.615 301.533 186.307L311.737 189.826C317.796 191.88 324.164 193.206 322.497 201.558C320.33 212.412 294.061 202.485 286.769 201.18C283.428 200.591 275.467 200.732 271.904 200.746C268.618 199.75 277.735 198.706 280.742 195.244C284.847 190.519 284.08 186.432 284.063 180.363Z"/><path fill="#FEC302" transform="scale(2 2)" d="M255.592 292.297C257.663 292.055 270.048 303.546 293.658 299.36C284.963 313.127 273.079 321.516 256.292 320.992C240.175 321.674 226.428 312.792 218.056 299.36C240.818 300.738 236.797 300.648 255.592 292.297Z"/><path fill="#F69405" transform="scale(2 2)" d="M229.554 214.476C258.721 212.359 282.104 211.09 310.759 219.02L310.759 224.533C291.018 224.273 270.632 224.523 250.844 224.525L236.613 224.568C234.511 224.595 229.96 224.809 228.091 224.533C230.257 223.331 230.982 221.266 231.593 219.02C231.13 216.943 230.851 216.15 229.554 214.476Z"/><path fill="#FEC302" transform="scale(2 2)" d="M267.258 277.039C274.735 276.245 280.389 282.944 284.063 288.544C282.016 288.586 279.984 288.562 277.937 288.544C271.773 287.631 264.896 285.308 261.749 279.505C263.968 278.032 264.73 277.658 267.258 277.039Z"/><path fill="#FEC302" transform="scale(2 2)" d="M244.636 278.327C257.742 277.331 242.881 287.073 233.795 288.544C231.916 288.577 229.976 288.549 228.091 288.544C231.622 281.88 237.474 279.443 244.636 278.327Z"/><path fill="#F69405" transform="scale(2 2)" d="M211.76 216.031C215.535 215.481 218.669 215.3 222.456 214.476C221.418 215.857 221.063 216.428 220.251 217.955C220.17 221.338 220.811 222.499 223.659 224.533C221.08 224.587 214.418 224.774 212.039 224.533C214.857 222.091 213.425 218.604 211.76 216.031Z"/><path transform="scale(2 2)" d="M352.76 114.25L352.737 92.9722C352.734 89.0758 352.559 85.0785 352.98 81.17C353.695 74.5413 364.553 74.5674 365.133 81.1622C365.431 84.5539 365.284 88.3275 365.278 91.7965L365.251 114.25C381.981 117.656 395.232 130.006 395.497 147.75L418.54 147.739C425.95 147.737 432.135 145.361 434.449 154.171C431.762 162.608 424.876 160.262 417.003 160.258L395.497 160.247L395.497 197.513C401.702 198.334 409.669 196.47 415.854 198.166C421.966 199.841 421.348 209.783 414.579 210.317C408.321 210.81 401.799 210.496 395.497 210.496L395.497 249.493L409.905 249.455C415.014 249.438 423.8 248.242 423.87 255.795C423.962 265.663 402.313 262.589 395.497 262.566C395.311 274.859 395.502 287.653 395.497 299.991L407.46 299.947C427.287 299.891 420.791 312.154 414.292 312.557C411.969 312.702 409.884 312.624 407.642 312.609L395.497 312.563L395.524 331.357C395.529 336.904 397.119 343.943 390.601 346.201C378.999 347.01 382.87 328.84 382.871 320.08L382.865 151.744C382.78 147.593 382.707 141.499 380.181 137.974C371.021 122.633 351.265 126.394 335.864 126.477C333.362 126.49 330.276 126.884 327.868 126.195C323.182 124.855 322.097 117.395 326.543 115.126C329.869 113.429 347.833 114.268 352.76 114.25Z"/><path transform="scale(2 2)" d="M152.577 76.7547C161.296 76.1345 159.541 87.4986 159.535 92.9937L159.516 113.92C167.971 114.383 177.915 110.632 180.428 120.173C178.391 127.757 175.53 126.361 168.898 126.512C162.005 126.67 154.742 126.184 147.899 126.486C126.245 127.376 128.764 151.782 128.76 166.143L128.752 205.939C128.765 210.668 129.087 216.732 128.568 221.283C127.76 228.362 116.554 228.959 116.454 220.499C116.415 217.2 116.47 213.787 116.497 210.496C111.152 209.702 104.04 210.524 98.1941 210.496C90.0711 209.034 85.0526 197.33 104.501 197.473L116.497 197.513L116.497 160.247L94.0912 160.269C90.4222 160.281 82.7448 161.132 79.9726 158.562C76.5519 155.39 78.0739 148.418 83.3965 147.945C87.2929 147.598 91.0344 147.723 94.9617 147.726L116.497 147.75C117.044 129.353 128.951 116.186 147.237 113.92C147.237 108.986 146.608 83.045 147.881 80.0143C148.635 78.2181 150.884 77.3772 152.577 76.7547Z"/><path transform="scale(2 2)" d="M255.592 58.7643C265.053 58.6451 262.379 73.6866 262.381 80.1627L262.372 113.92L275.028 113.88C277.52 113.875 279.829 113.754 282.394 114.071C288.08 114.647 289.564 120.975 286.148 124.896C284.151 127.189 276.568 126.503 273.587 126.502L203.625 126.492C184.414 126.685 191.762 113.704 198.514 113.92C198.295 107.803 196.4 93.4513 204.506 93.2614C213.168 93.0584 210.805 107.391 210.792 113.92C214.565 113.706 220.063 113.903 224.017 113.907L250.005 113.92L249.994 82.2816C249.994 73.8253 246.922 61.4352 255.592 58.7643Z"/><path transform="scale(2 2)" d="M120.81 238.79C126.427 238.415 128.689 240.978 128.712 246.446L128.756 315.184C128.755 318.871 128.777 322.295 128.576 326.08C128.61 331.527 121.493 333.231 118.19 329.704C115.762 327.112 116.469 319.498 116.497 315.949C116.514 314.82 116.503 313.692 116.497 312.563C109.728 311.3 91.1621 315.991 91.5281 305.708C91.7692 298.931 99.6261 299.909 103.822 299.943L116.497 299.991C116.774 296.323 116.507 289.363 116.499 285.363L116.495 246.08C116.535 241.941 117.17 240.684 120.81 238.79Z"/><path transform="scale(2 2)" d="M64.9578 250.382C75.7418 249.761 94.2012 249.82 104.828 250.725C110.247 251.808 109.82 259.929 104.443 262.566L79.0646 262.58C70.7515 262.582 62.681 265.317 60.6025 256.32C61.4443 252.974 61.9175 252.02 64.9578 250.382Z"/><path transform="scale(2 2)" d="M255.592 406.307C260.205 406.566 262.069 409.115 262.266 413.445C262.54 419.461 262.97 439.195 261.749 445.001C259.967 447.436 259.102 447.893 256.292 448.677C250.64 448.048 249.742 445.204 249.892 440.065C250.153 431.093 249.856 422.129 249.894 413.161C249.911 408.943 251.584 407.308 255.592 406.307Z"/><path transform="scale(2 2)" d="M306.706 93.2938C314.096 94.0884 313.656 98.6721 313.292 104.656C312.859 111.744 315.306 125.37 305.647 126.492C294.348 125.76 300.355 116.612 301.038 112.26C302.025 105.969 297.744 95.3281 306.706 93.2938Z"/><path transform="scale(2 2)" d="M407.288 350.634C417.693 350.636 431.359 346.618 434.449 356.756C433.527 359.764 432.891 360.878 430.14 362.549C426.65 362.812 409.603 362.868 407.053 362.208C401.578 360.792 401.749 352.967 407.288 350.634Z"/><path transform="scale(2 2)" d="M439.088 249.493C455.965 249.459 451.098 260.834 445.669 261.822C431.054 263.59 431.527 251.695 439.088 249.493Z"/></svg>